Coordinates
version=1
nRows=9
nColumns=36
inDegrees=yes

Units are S.I. units (second, meters, Newtons, ...)
If the header above contains a line with 'inDegrees', this indicates whether rotational values are in degrees (yes) or radians (no).

endheader
time	pelvis_tilt	pelvis_list	pelvis_rotation	pelvis_tx	pelvis_ty	pelvis_tz	hip_flexion_r	hip_adduction_r	hip_rotation_r	knee_angle_r	knee_angle_r_beta	ankle_angle_r	subtalar_angle_r	mtp_angle_r	hip_flexion_l	hip_adduction_l	hip_rotation_l	knee_angle_l	knee_angle_l_beta	ankle_angle_l	subtalar_angle_l	mtp_angle_l	lumbar_extension	lumbar_bending	lumbar_rotation	arm_flex_r	arm_add_r	arm_rot_r	elbow_flex_r	pro_sup_r	arm_flex_l	arm_add_l	arm_rot_l	elbow_flex_l	pro_sup_l
      5.01694920	    -89.70735215	      0.65819584	      5.07355635	     -0.14157739	      0.27519469	     -0.00575399	     14.03369296	      6.15900772	      9.52826917	      8.07079360	      0.14086192	      6.31730761	    -17.38506731	     -7.49999987	     16.98539202	      0.32193013	      5.12392650	     13.27729949	      0.23173259	     -1.98503557	      3.45464532	     -7.49999987	     -0.95391036	     -9.56854002	      4.75337254	     13.98321982	    -32.31843753	    -15.71666544	    110.83822038	     88.07841204	     53.58676718	    -39.12446814	     29.33911081	     94.58478872	     78.00659794
      5.03389830	    -89.63892805	      0.63126679	      5.27848934	     -0.14389960	      0.28142568	     -0.00873625	     14.60996965	      6.05310933	      8.83992082	      7.80500208	      0.13622298	      6.99484615	    -16.89722128	     -7.49999987	     17.32436207	      0.80391311	      4.52418239	     12.37223938	      0.21593631	     -0.27429920	      4.67711079	     -7.49999987	     -0.66210070	     -9.60870279	      4.79001523	     14.79841846	    -32.68299694	    -14.94158944	    108.87847028	     90.90361183	     55.32851431	    -38.05096005	     31.41441244	     91.80549442	     79.08174955
      5.05084750	    -89.55472319	      0.65104476	      5.58940760	     -0.15146981	      0.28371661	     -0.01218449	     15.21366374	      5.91957495	      8.36954930	      7.89935487	      0.13786975	      8.10734448	    -16.98940977	     -7.49999987	     17.80296096	      1.35272547	      4.47383172	     12.08860357	      0.21098593	      1.61223987	      4.80521789	     -7.49999987	     -0.37430508	     -9.53890565	      4.53413154	     16.10281649	    -33.13397292	    -13.83025087	    106.99851939	     90.92181012	     56.51850051	    -37.15269294	     32.64732159	     89.57665962	     79.21204281
      5.06779660	    -89.42692517	      0.58101030	      5.79411192	     -0.16076006	      0.28391912	     -0.01459321	     15.65569022	      5.95466311	      8.05476065	      8.14083887	      0.14208444	      9.77280750	    -17.23493881	     -7.49999987	     18.30494249	      1.80338271	      5.00732282	     12.41992784	      0.21676863	      3.43378472	      3.78161456	     -7.49999987	      0.01546189	     -9.29055206	      4.53212855	     17.30632145	    -33.79328251	    -12.98835949	    105.38533553	     90.82349635	     57.84379597	    -36.40568099	     34.27593020	     87.53668038	     79.33076640
      5.08474580	    -89.26220280	      0.27916110	      5.88951103	     -0.16660603	      0.28460177	     -0.01619901	     15.97863594	      6.28482399	      7.92561224	      8.39922384	      0.14659411	     11.26836977	    -17.80798144	     -7.49999987	     18.44689699	      1.97902040	      5.65163445	     12.57921122	      0.21954865	      5.35571518	      2.69721193	     -7.49999987	      0.20754246	     -8.63597359	      4.58824308	     18.19079405	    -34.26662263	    -13.09476202	    104.83022282	     90.77557951	     58.33823220	    -35.89353722	     34.61156933	     86.93923270	     79.34075034
      5.10169490	    -89.15884906	     -0.26619592	      6.06126399	     -0.16861752	      0.28618450	     -0.01775142	     16.32180140	      6.77240698	      7.36469025	      8.53517863	      0.14896697	     12.49815852	    -17.77770836	     -7.49999987	     18.48775762	      2.04132236	      7.26896097	     12.55531288	      0.21913155	      6.30953927	     -0.65815291	     -7.49999987	      0.98059734	     -7.83594384	      4.67550019	     19.26778671	    -34.95273544	    -12.00469802	    102.95164250	     85.53831278	     59.59946369	    -34.84890716	     36.66877831	     84.30103317	     76.12783594
      5.11864410	    -89.02233080	     -0.76545297	      6.05274617	     -0.16935220	      0.28726565	     -0.01894212	     16.48589918	      7.25285065	      7.37055680	      8.51592326	      0.14863090	     13.12513243	    -18.02826193	     -7.49999987	     18.27477846	      1.92094504	      8.26474079	     12.23548749	      0.21354954	      7.39775001	     -3.11093113	     -7.49999987	      1.41174848	     -7.39599407	      6.46584065	     17.06772495	    -35.77724951	    -15.58194116	    103.24760333	     89.50871255	     61.96031873	    -31.80169966	     39.20134640	     80.70164632	     78.21697183
      5.13559320	    -88.94555176	     -1.30064211	      6.16565381	     -0.17064387	      0.28757999	     -0.02057392	     16.61389813	      7.65424847	      7.50645354	      8.38889381	      0.14641382	     13.15584517	    -18.32279961	     -7.49999987	     17.95748508	      1.67698983	      9.47989890	     11.51788114	      0.20102495	      7.70693150	     -5.74345516	     -7.49999987	      1.98382515	     -6.64440817	      6.37222787	     17.63179467	    -36.32854258	    -14.83849028	    102.25830376	     85.21895123	     62.31819637	    -31.05538296	     39.90415338	     79.19181940	     75.71934567
      5.15254240	    -88.93056805	     -1.72059515	      6.24972237	     -0.17212657	      0.28800582	     -0.02188901	     16.79226067	      7.87905027	      7.86448392	      8.38567584	      0.14635765	     12.95249894	    -18.66994929	     -7.49999987	     17.76585091	      1.35442977	     10.27175755	     10.81457774	      0.18874999	      7.82082790	     -7.06769211	     -7.49999987	      2.60486825	     -6.25861573	      7.36669832	     16.13472301	    -37.18095449	    -16.64651536	    102.09675142	     89.12469201	     63.57728407	    -28.99239606	     41.54410480	     76.39654722	     78.13490426
